<svg xmlns="http://www.w3.org/2000/svg" viewBox="0 0 512 512">
  <defs>
    <linearGradient id="bg" x1="0%" y1="0%" x2="100%" y2="100%">
      <stop offset="0%" stop-color="#FFF3E0"/>
      <stop offset="100%" stop-color="#FFE0B2"/>
    </linearGradient>
  </defs>
  <!-- 背景 -->
  <rect width="512" height="512" rx="128" fill="url(#bg)"/>
  <!-- 耳朵 -->
  <ellipse cx="145" cy="145" rx="55" ry="70" fill="#C89B7B" transform="rotate(-25 145 145)"/>
  <ellipse cx="367" cy="145" rx="55" ry="70" fill="#C89B7B" transform="rotate(25 367 145)"/>
  <ellipse cx="145" cy="155" rx="30" ry="45" fill="#E8C9A8" transform="rotate(-25 145 155)"/>
  <ellipse cx="367" cy="155" rx="30" ry="45" fill="#E8C9A8" transform="rotate(25 367 155)"/>
  <!-- 脸 -->
  <ellipse cx="256" cy="280" rx="160" ry="150" fill="#E8C9A8"/>
  <!-- 脸颊白毛 -->
  <ellipse cx="256" cy="315" rx="100" ry="90" fill="#FBF3EA"/>
  <!-- 眼睛 -->
  <ellipse cx="195" cy="255" rx="20" ry="25" fill="#3D3D3D"/>
  <ellipse cx="317" cy="255" rx="20" ry="25" fill="#3D3D3D"/>
  <circle cx="202" cy="247" r="8" fill="#FFFFFF"/>
  <circle cx="324" cy="247" r="8" fill="#FFFFFF"/>
  <!-- 腮红 -->
  <ellipse cx="165" cy="315" rx="25" ry="15" fill="#FFB6B6" opacity="0.6"/>
  <ellipse cx="347" cy="315" rx="25" ry="15" fill="#FFB6B6" opacity="0.6"/>
  <!-- 鼻子 -->
  <ellipse cx="256" cy="315" rx="15" ry="12" fill="#3D3D3D"/>
  <!-- 嘴 -->
  <path d="M 256 325 Q 256 335 246 345" stroke="#3D3D3D" stroke-width="6" fill="none" stroke-linecap="round"/>
  <path d="M 256 325 Q 256 335 266 345" stroke="#3D3D3D" stroke-width="6" fill="none" stroke-linecap="round"/>
</svg>
